<?xml version="1.0" encoding="utf-8"?>
<!-- Generator: Adobe Illustrator 15.1.0, SVG Export Plug-In . SVG Version: 6.00 Build 0)  -->
<!DOCTYPE svg PUBLIC "-//W3C//DTD SVG 1.1//EN" "http://www.w3.org/Graphics/SVG/1.1/DTD/svg11.dtd">
<svg version="1.1" xmlns="http://www.w3.org/2000/svg" xmlns:xlink="http://www.w3.org/1999/xlink" x="0px" y="0px" width="960px"
	 height="240px" viewBox="0 0 960 240" enable-background="new 0 0 960 240" xml:space="preserve">
<g id="レイヤー_1">
	<g>
		<g>
			<path fill="#4CAF50" d="M99.09,85.396c0,0,27.058-42.3,9.206-71.521C101.454,2.678,86.831-0.854,75.632,5.988
				c-8.024,4.902-12.111,13.801-11.267,22.569c-7.418-4.753-17.2-5.177-25.225-0.275c-11.198,6.842-14.729,21.466-7.888,32.664
				C49.105,90.167,99.09,85.396,99.09,85.396z"/>
			<path fill="#4CAF50" d="M110.28,103.712c0,0-27.058,42.298-9.205,71.521c6.842,11.197,21.466,14.729,32.664,7.887
				c8.024-4.901,12.112-13.801,11.265-22.569c7.418,4.755,17.201,5.179,25.225,0.276c11.198-6.842,14.729-21.467,7.889-32.662
				C160.266,98.941,110.28,103.712,110.28,103.712z"/>
			<path fill="#4CAF50" d="M193.251,65.501c-4.903-8.024-13.801-12.112-22.571-11.267c4.754-7.418,5.178-17.2,0.276-25.225
				c-6.842-11.197-21.465-14.729-32.663-7.888c-29.22,17.852-24.452,67.838-24.452,67.838s42.299,27.058,71.521,9.205
				C196.561,91.323,200.092,76.699,193.251,65.501z"/>
			<path fill="#4CAF50" d="M38.689,134.874c-4.754,7.418-5.179,17.198-0.276,25.224c6.841,11.197,21.465,14.729,32.662,7.889
				c29.223-17.854,24.452-67.837,24.452-67.837s-42.298-27.058-71.521-9.204c-11.198,6.841-14.729,21.465-7.888,32.663
				C21.022,131.632,29.92,135.719,38.689,134.874z"/>
			<path fill="#4CAF50" d="M88.229,160.928c-0.326,0.729-0.662,1.54-1.071,2.404c-0.425,0.859-0.851,1.794-1.385,2.758
				c-1.017,1.946-2.286,4.07-3.799,6.28c-1.509,2.213-3.269,4.51-5.27,6.8c-2,2.293-4.241,4.577-6.682,6.797
				c-2.439,2.219-5.078,4.37-7.855,6.418c-2.783,2.043-5.708,3.977-8.701,5.79c-5.988,3.63-12.275,6.738-18.302,9.312
				c-6.025,2.578-11.794,4.619-16.77,6.184c-4.979,1.563-9.166,2.645-12.058,3.322c-1.446,0.338-2.569,0.576-3.307,0.722
				c-0.354,0.065-0.627,0.115-0.81,0.149c-0.096,0.019-0.125,0.019-0.151,0.021c-0.025,0.003-0.075,0.013-0.068,0.011L9.1,241.482
				c0,0,0.144-0.055,0.421-0.164c0.238-0.101,0.591-0.25,1.052-0.443c0.887-0.385,2.142-0.947,3.702-1.684
				c3.12-1.474,7.461-3.649,12.502-6.502c5.039-2.854,10.781-6.383,16.67-10.541c5.888-4.151,11.924-8.934,17.514-14.198
				c2.796-2.632,5.483-5.373,7.991-8.192c2.503-2.824,4.826-5.722,6.914-8.632c2.09-2.909,3.94-5.833,5.526-8.688
				c1.588-2.853,2.907-5.636,3.979-8.25c1.073-2.615,1.905-5.058,2.514-7.25c0.33-1.088,0.562-2.129,0.802-3.074
				c0.225-0.952,0.389-1.838,0.557-2.627c0.281-1.596,0.484-2.844,0.577-3.702c0.107-0.854,0.164-1.31,0.164-1.31
				s-0.152,0.435-0.434,1.246C89.285,158.279,88.825,159.453,88.229,160.928z"/>
		</g>
	</g>
</g>
<g id="レイヤー_2" display="none">
	<text transform="matrix(1 0 0 1 219.0996 135.0156)" display="inline"><tspan x="0" y="0" fill="#4CAF50" font-family="'KozGoPro-Medium-90ms-RKSJ-H'" font-size="118.8925">佐々木鍼灸院</tspan><tspan x="2.631" y="64.319" fill="#4CAF50" font-family="'KozGoPro-Regular-90ms-RKSJ-H'" font-size="32.8925">千葉県船橋市の </tspan><tspan x="240.543" y="64.319" fill="#4CAF50" font-family="'KozGoPro-Regular-90ms-RKSJ-H'" font-size="32.8925" letter-spacing="-3"> </tspan><tspan x="244.259" y="64.319" fill="#4CAF50" font-family="'KozGoPro-Regular-90ms-RKSJ-H'" font-size="32.8925">はり・きゅう・リンパ浮腫治療</tspan></text>
</g>
<g id="レイヤー_3">
	<g>
		<path fill="#4CAF50" d="M225.63,49.72h31.359c6.208,0,10.836,0.259,13.887,0.776c3.05,0.518,5.779,1.597,8.188,3.238
			c2.408,1.642,4.415,3.826,6.02,6.556c1.605,2.729,2.408,5.789,2.408,9.177c0,3.675-0.99,7.046-2.97,10.114
			c-1.98,3.069-4.665,5.37-8.054,6.903c4.78,1.391,8.455,3.764,11.023,7.117c2.569,3.354,3.853,7.296,3.853,11.827
			c0,3.568-0.83,7.037-2.488,10.408c-1.659,3.372-3.925,6.065-6.796,8.081c-2.872,2.016-6.413,3.256-10.622,3.719
			c-2.641,0.286-9.009,0.464-19.104,0.535H225.63V49.72z M241.471,62.778v18.141h10.381c6.172,0,10.007-0.089,11.506-0.268
			c2.71-0.321,4.843-1.258,6.395-2.81c1.552-1.552,2.328-3.594,2.328-6.127c0-2.425-0.669-4.396-2.007-5.913
			c-1.338-1.516-3.327-2.435-5.967-2.756c-1.57-0.178-6.083-0.268-13.539-0.268H241.471z M241.471,93.976v20.978h14.663
			c5.708,0,9.329-0.161,10.863-0.482c2.354-0.428,4.272-1.471,5.753-3.13c1.48-1.659,2.221-3.88,2.221-6.663
			c0-2.354-0.571-4.352-1.712-5.993c-1.142-1.641-2.792-2.836-4.95-3.585c-2.159-0.75-6.841-1.124-14.047-1.124H241.471z"/>
		<path fill="#4CAF50" d="M304.617,63.634V49.72h15.037v13.914H304.617z M304.617,128.171V71.34h15.037v56.831H304.617z"/>
		<path fill="#4CAF50" d="M349.461,128.171h-15.038V71.34h13.967v8.081c2.39-3.817,4.54-6.332,6.448-7.545
			c1.908-1.212,4.076-1.819,6.502-1.819c3.425,0,6.725,0.946,9.9,2.836l-4.655,13.111c-2.534-1.64-4.888-2.461-7.064-2.461
			c-2.105,0-3.889,0.58-5.352,1.739c-1.463,1.16-2.614,3.256-3.452,6.288c-0.838,3.033-1.257,9.383-1.257,19.051V128.171z"/>
		<path fill="#4CAF50" d="M429.838,128.171h-13.967v-8.348c-2.319,3.246-5.057,5.664-8.214,7.251
			c-3.158,1.587-6.342,2.381-9.552,2.381c-6.529,0-12.121-2.63-16.777-7.893c-4.656-5.262-6.983-12.603-6.983-22.021
			c0-9.632,2.265-16.955,6.796-21.967c4.53-5.012,10.256-7.519,17.178-7.519c6.35,0,11.844,2.641,16.482,7.92V49.72h15.037V128.171z
			 M389.703,98.525c0,6.065,0.838,10.454,2.515,13.164c2.426,3.925,5.814,5.887,10.167,5.887c3.46,0,6.403-1.472,8.83-4.415
			c2.425-2.943,3.639-7.339,3.639-13.191c0-6.529-1.177-11.229-3.532-14.101c-2.354-2.871-5.37-4.308-9.044-4.308
			c-3.568,0-6.555,1.418-8.963,4.254C390.907,88.651,389.703,92.888,389.703,98.525z"/>
		<path fill="#4CAF50" d="M462.428,128.171V62.992h-23.278V49.72h62.344v13.271h-23.225v65.179H462.428z"/>
		<path fill="#4CAF50" d="M511.768,128.171V49.72h15.84v30.877h31.038V49.72h15.84v78.451h-15.84V93.869h-31.038v34.302H511.768z"/>
		<path fill="#4CAF50" d="M590.86,128.171V49.72h58.169v13.271H606.7v17.392h39.386v13.218H606.7v21.352h43.828v13.217H590.86z"/>
		<path fill="#4CAF50" d="M681.619,128.171V62.992h-23.278V49.72h62.344v13.271h-23.226v65.179H681.619z"/>
		<path fill="#4CAF50" d="M801.65,128.171h-17.231l-6.85-17.819H746.21l-6.475,17.819h-16.804l30.557-78.451h16.749L801.65,128.171z
			 M772.485,97.133l-10.81-29.111L751.08,97.133H772.485z"/>
		<path fill="#4CAF50" d="M810.052,128.171V49.72h25.419c9.633,0,15.911,0.393,18.837,1.177c4.495,1.178,8.259,3.738,11.291,7.679
			c3.032,3.943,4.549,9.036,4.549,15.278c0,4.816-0.875,8.866-2.622,12.147c-1.748,3.283-3.97,5.86-6.662,7.733
			c-2.694,1.873-5.432,3.113-8.215,3.719c-3.782,0.749-9.258,1.124-16.429,1.124h-10.328v29.593H810.052z M825.892,62.992v22.262
			h8.669c6.243,0,10.417-0.41,12.522-1.231c2.104-0.82,3.755-2.104,4.95-3.853c1.194-1.748,1.793-3.781,1.793-6.1
			c0-2.854-0.839-5.208-2.516-7.064c-1.677-1.854-3.8-3.014-6.368-3.479c-1.892-0.356-5.69-0.535-11.398-0.535H825.892z"/>
		<path fill="#4CAF50" d="M903.754,128.171V95.153L875.018,49.72h18.568l18.463,31.038l18.088-31.038h18.248l-28.844,45.541v32.91
			H903.754z"/>
		<path fill="#4CAF50" d="M244.023,184.168c-1.64,1.395-3.219,2.379-4.736,2.953c-1.518,0.574-3.146,0.861-4.884,0.861
			c-2.871,0-5.077-0.701-6.619-2.104c-1.542-1.402-2.313-3.194-2.313-5.376c0-1.279,0.291-2.448,0.874-3.506
			c0.582-1.059,1.345-1.907,2.288-2.547s2.005-1.123,3.187-1.452c0.869-0.229,2.182-0.45,3.937-0.664
			c3.576-0.426,6.208-0.935,7.898-1.525c0.016-0.606,0.024-0.992,0.024-1.156c0-1.805-0.418-3.076-1.255-3.814
			c-1.132-1-2.813-1.501-5.044-1.501c-2.083,0-3.622,0.365-4.614,1.096c-0.993,0.729-1.727,2.021-2.202,3.875l-4.331-0.591
			c0.394-1.854,1.042-3.35,1.944-4.49c0.902-1.14,2.206-2.018,3.912-2.633s3.683-0.923,5.93-0.923c2.23,0,4.043,0.263,5.438,0.788
			c1.394,0.524,2.419,1.185,3.076,1.98s1.116,1.8,1.378,3.014c0.148,0.755,0.222,2.116,0.222,4.085v5.905
			c0,4.117,0.094,6.722,0.283,7.813s0.562,2.137,1.12,3.137h-4.625C244.45,186.473,244.155,185.398,244.023,184.168z
			 M243.655,174.277c-1.608,0.656-4.02,1.214-7.234,1.673c-1.821,0.263-3.108,0.558-3.863,0.886
			c-0.755,0.328-1.337,0.808-1.747,1.439c-0.41,0.632-0.615,1.333-0.615,2.104c0,1.182,0.447,2.165,1.341,2.953
			c0.894,0.787,2.202,1.181,3.924,1.181c1.706,0,3.223-0.373,4.552-1.119c1.329-0.746,2.304-1.768,2.928-3.063
			c0.476-1.001,0.714-2.477,0.714-4.429V174.277z"/>
		<path fill="#4CAF50" d="M268.949,187.392v-26.131h3.986v3.961c1.017-1.853,1.956-3.075,2.817-3.666
			c0.861-0.59,1.809-0.886,2.842-0.886c1.492,0,3.01,0.477,4.552,1.428l-1.525,4.108c-1.083-0.64-2.166-0.959-3.248-0.959
			c-0.968,0-1.837,0.291-2.608,0.873c-0.771,0.583-1.321,1.391-1.649,2.424c-0.492,1.574-0.738,3.297-0.738,5.167v13.681H268.949z"
			/>
		<path fill="#4CAF50" d="M303.667,178.977l4.577,0.566c-0.722,2.674-2.059,4.748-4.011,6.225c-1.953,1.477-4.446,2.215-7.48,2.215
			c-3.822,0-6.853-1.177-9.092-3.531c-2.239-2.354-3.359-5.655-3.359-9.903c0-4.396,1.132-7.809,3.396-10.236
			c2.264-2.428,5.2-3.642,8.809-3.642c3.494,0,6.348,1.189,8.563,3.568c2.214,2.378,3.322,5.725,3.322,10.039
			c0,0.262-0.008,0.656-0.024,1.181h-19.488c0.164,2.871,0.976,5.068,2.436,6.594c1.46,1.526,3.281,2.289,5.462,2.289
			c1.624,0,3.01-0.427,4.158-1.279C302.083,182.208,302.994,180.847,303.667,178.977z M289.125,171.816h14.591
			c-0.197-2.198-0.755-3.847-1.673-4.945c-1.411-1.706-3.24-2.56-5.487-2.56c-2.034,0-3.745,0.681-5.13,2.042
			C290.04,167.716,289.273,169.536,289.125,171.816z"/>
		<path fill="#4CAF50" d="M312.033,179.592l4.379-0.689c0.246,1.756,0.931,3.101,2.055,4.036c1.124,0.935,2.694,1.402,4.712,1.402
			c2.034,0,3.543-0.414,4.527-1.243c0.984-0.828,1.477-1.8,1.477-2.915c0-1.001-0.435-1.788-1.304-2.362
			c-0.607-0.394-2.116-0.895-4.527-1.501c-3.248-0.82-5.5-1.529-6.754-2.129c-1.255-0.599-2.206-1.427-2.854-2.484
			c-0.648-1.059-0.972-2.228-0.972-3.507c0-1.164,0.267-2.243,0.8-3.235c0.533-0.992,1.259-1.816,2.178-2.473
			c0.689-0.509,1.628-0.939,2.817-1.292c1.189-0.353,2.464-0.529,3.826-0.529c2.05,0,3.851,0.296,5.401,0.886
			c1.55,0.591,2.694,1.391,3.432,2.399c0.738,1.009,1.247,2.358,1.526,4.048l-4.331,0.59c-0.197-1.345-0.767-2.395-1.71-3.149
			c-0.943-0.754-2.276-1.132-3.998-1.132c-2.034,0-3.486,0.337-4.355,1.009c-0.87,0.673-1.304,1.46-1.304,2.362
			c0,0.574,0.18,1.091,0.541,1.55c0.361,0.477,0.927,0.87,1.698,1.182c0.443,0.164,1.747,0.541,3.913,1.132
			c3.133,0.836,5.318,1.521,6.557,2.055c1.238,0.533,2.21,1.308,2.916,2.325c0.705,1.017,1.058,2.28,1.058,3.789
			c0,1.477-0.431,2.866-1.292,4.171c-0.861,1.304-2.104,2.313-3.728,3.026c-1.624,0.713-3.461,1.07-5.511,1.07
			c-3.396,0-5.983-0.705-7.763-2.116C313.66,184.455,312.525,182.364,312.033,179.592z"/>
		<path fill="#4CAF50" d="M339,197.406v-36.146h4.035v3.396c0.951-1.329,2.026-2.325,3.223-2.989
			c1.197-0.665,2.649-0.997,4.355-0.997c2.23,0,4.199,0.574,5.905,1.723c1.706,1.148,2.993,2.768,3.863,4.859
			s1.304,4.384,1.304,6.877c0,2.674-0.479,5.081-1.439,7.222c-0.959,2.141-2.354,3.781-4.183,4.922c-1.83,1.14-3.752,1.71-5.77,1.71
			c-1.477,0-2.801-0.313-3.974-0.936s-2.137-1.41-2.891-2.362v12.722H339z M343.011,174.474c0,3.363,0.68,5.849,2.042,7.456
			c1.361,1.607,3.01,2.411,4.946,2.411c1.968,0,3.654-0.833,5.057-2.498c1.402-1.664,2.104-4.244,2.104-7.738
			c0-3.33-0.685-5.823-2.055-7.479c-1.37-1.657-3.006-2.485-4.909-2.485c-1.886,0-3.555,0.882-5.007,2.645
			C343.736,168.548,343.011,171.111,343.011,174.474z"/>
		<path fill="#4CAF50" d="M365.377,174.326c0-4.839,1.345-8.423,4.035-10.753c2.247-1.935,4.986-2.903,8.218-2.903
			c3.592,0,6.528,1.178,8.809,3.531c2.28,2.354,3.42,5.606,3.42,9.756c0,3.363-0.505,6.008-1.514,7.936s-2.477,3.424-4.404,4.49
			c-1.928,1.066-4.031,1.6-6.311,1.6c-3.658,0-6.615-1.173-8.87-3.519C366.504,182.118,365.377,178.739,365.377,174.326z
			 M369.929,174.326c0,3.347,0.73,5.853,2.19,7.517c1.46,1.665,3.297,2.498,5.512,2.498c2.198,0,4.027-0.837,5.487-2.51
			c1.46-1.674,2.19-4.224,2.19-7.652c0-3.231-0.734-5.68-2.202-7.345c-1.468-1.665-3.293-2.498-5.475-2.498
			c-2.214,0-4.052,0.829-5.512,2.485C370.659,168.479,369.929,170.979,369.929,174.326z"/>
		<path fill="#4CAF50" d="M395.051,187.392v-26.131h3.986v3.716c1.919-2.871,4.691-4.307,8.317-4.307
			c1.575,0,3.022,0.283,4.343,0.849c1.32,0.566,2.309,1.309,2.965,2.228c0.656,0.919,1.115,2.01,1.378,3.272
			c0.164,0.82,0.246,2.256,0.246,4.306v16.067h-4.429v-15.896c0-1.804-0.172-3.153-0.517-4.047
			c-0.344-0.895-0.956-1.607-1.833-2.141s-1.907-0.8-3.088-0.8c-1.887,0-3.515,0.599-4.884,1.796s-2.055,3.47-2.055,6.815v14.271
			H395.051z"/>
		<path fill="#4CAF50" d="M421.305,179.592l4.379-0.689c0.246,1.756,0.931,3.101,2.055,4.036c1.124,0.935,2.694,1.402,4.712,1.402
			c2.034,0,3.543-0.414,4.527-1.243c0.984-0.828,1.477-1.8,1.477-2.915c0-1.001-0.435-1.788-1.304-2.362
			c-0.607-0.394-2.116-0.895-4.527-1.501c-3.248-0.82-5.5-1.529-6.754-2.129c-1.255-0.599-2.206-1.427-2.854-2.484
			c-0.648-1.059-0.972-2.228-0.972-3.507c0-1.164,0.267-2.243,0.8-3.235c0.533-0.992,1.259-1.816,2.178-2.473
			c0.689-0.509,1.628-0.939,2.817-1.292c1.189-0.353,2.464-0.529,3.826-0.529c2.05,0,3.851,0.296,5.401,0.886
			c1.55,0.591,2.694,1.391,3.432,2.399c0.738,1.009,1.247,2.358,1.526,4.048l-4.331,0.59c-0.197-1.345-0.767-2.395-1.71-3.149
			c-0.943-0.754-2.276-1.132-3.998-1.132c-2.034,0-3.486,0.337-4.355,1.009c-0.87,0.673-1.304,1.46-1.304,2.362
			c0,0.574,0.18,1.091,0.541,1.55c0.361,0.477,0.927,0.87,1.698,1.182c0.443,0.164,1.747,0.541,3.913,1.132
			c3.133,0.836,5.318,1.521,6.557,2.055c1.238,0.533,2.21,1.308,2.916,2.325c0.705,1.017,1.058,2.28,1.058,3.789
			c0,1.477-0.431,2.866-1.292,4.171c-0.861,1.304-2.104,2.313-3.728,3.026c-1.624,0.713-3.461,1.07-5.511,1.07
			c-3.396,0-5.983-0.705-7.763-2.116C422.932,184.455,421.797,182.364,421.305,179.592z"/>
		<path fill="#4CAF50" d="M448.296,156.413v-5.093h4.429v5.093H448.296z M448.296,187.392v-26.131h4.429v26.131H448.296z"/>
		<path fill="#4CAF50" d="M466.726,187.392l-9.94-26.131h4.675l5.61,15.649c0.606,1.689,1.165,3.444,1.673,5.265
			c0.394-1.378,0.943-3.034,1.648-4.97l5.807-15.944h4.552l-9.892,26.131H466.726z"/>
		<path fill="#4CAF50" d="M502.552,178.977l4.576,0.566c-0.722,2.674-2.059,4.748-4.011,6.225s-4.445,2.215-7.479,2.215
			c-3.822,0-6.853-1.177-9.092-3.531c-2.239-2.354-3.358-5.655-3.358-9.903c0-4.396,1.132-7.809,3.396-10.236
			s5.199-3.642,8.809-3.642c3.494,0,6.348,1.189,8.563,3.568c2.215,2.378,3.321,5.725,3.321,10.039c0,0.262-0.008,0.656-0.024,1.181
			h-19.487c0.164,2.871,0.976,5.068,2.437,6.594c1.459,1.526,3.28,2.289,5.462,2.289c1.624,0,3.01-0.427,4.158-1.279
			C500.969,182.208,501.879,180.847,502.552,178.977z M488.01,171.816h14.591c-0.196-2.198-0.755-3.847-1.673-4.945
			c-1.411-1.706-3.24-2.56-5.487-2.56c-2.034,0-3.744,0.681-5.13,2.042C488.924,167.716,488.157,169.536,488.01,171.816z"/>
		<path fill="#4CAF50" d="M531.512,187.392l-7.997-26.131h4.577l4.158,15.083l1.55,5.61c0.065-0.279,0.517-2.075,1.354-5.389
			l4.158-15.305h4.552l3.912,15.157l1.305,4.994l1.501-5.044l4.478-15.107h4.307l-8.169,26.131h-4.602l-4.158-15.649l-1.009-4.453
			l-5.29,20.103H531.512z"/>
		<path fill="#4CAF50" d="M580.969,178.977l4.576,0.566c-0.722,2.674-2.059,4.748-4.011,6.225s-4.445,2.215-7.479,2.215
			c-3.822,0-6.853-1.177-9.092-3.531c-2.239-2.354-3.358-5.655-3.358-9.903c0-4.396,1.132-7.809,3.396-10.236
			s5.199-3.642,8.809-3.642c3.494,0,6.348,1.189,8.563,3.568c2.215,2.378,3.321,5.725,3.321,10.039c0,0.262-0.008,0.656-0.024,1.181
			h-19.487c0.164,2.871,0.976,5.068,2.437,6.594c1.459,1.526,3.28,2.289,5.462,2.289c1.624,0,3.01-0.427,4.158-1.279
			C579.386,182.208,580.296,180.847,580.969,178.977z M566.427,171.816h14.591c-0.196-2.198-0.755-3.847-1.673-4.945
			c-1.411-1.706-3.24-2.56-5.487-2.56c-2.034,0-3.744,0.681-5.13,2.042C567.341,167.716,566.574,169.536,566.427,171.816z"/>
		<path fill="#4CAF50" d="M595.19,187.392h-4.109V151.32h4.43v12.868c1.869-2.346,4.256-3.519,7.16-3.519
			c1.607,0,3.128,0.324,4.563,0.972c1.436,0.648,2.616,1.559,3.544,2.731c0.926,1.173,1.652,2.588,2.177,4.245
			c0.525,1.656,0.788,3.428,0.788,5.314c0,4.478-1.107,7.939-3.322,10.384c-2.214,2.444-4.872,3.666-7.972,3.666
			c-3.084,0-5.504-1.288-7.259-3.863V187.392z M595.142,174.129c0,3.134,0.426,5.397,1.279,6.791c1.394,2.28,3.28,3.421,5.659,3.421
			c1.936,0,3.608-0.841,5.02-2.522c1.41-1.681,2.116-4.187,2.116-7.517c0-3.412-0.677-5.93-2.03-7.554s-2.989-2.437-4.909-2.437
			c-1.936,0-3.608,0.841-5.02,2.522C595.847,168.516,595.142,170.947,595.142,174.129z"/>
		<path fill="#4CAF50" d="M650.084,187.392v-3.297c-1.656,2.592-4.093,3.888-7.308,3.888c-2.083,0-3.998-0.574-5.745-1.723
			s-3.101-2.752-4.06-4.811c-0.96-2.059-1.439-4.425-1.439-7.099c0-2.608,0.435-4.974,1.304-7.099
			c0.869-2.124,2.174-3.752,3.912-4.884s3.683-1.698,5.832-1.698c1.574,0,2.977,0.332,4.207,0.997
			c1.23,0.664,2.23,1.529,3.002,2.596V151.32h4.404v36.071H650.084z M636.084,174.351c0,3.347,0.705,5.849,2.116,7.505
			c1.41,1.657,3.075,2.485,4.995,2.485c1.935,0,3.58-0.791,4.933-2.375c1.354-1.583,2.03-3.998,2.03-7.246
			c0-3.576-0.688-6.2-2.066-7.874c-1.378-1.673-3.076-2.51-5.094-2.51c-1.969,0-3.613,0.805-4.934,2.412
			S636.084,170.89,636.084,174.351z"/>
		<path fill="#4CAF50" d="M679.045,178.977l4.576,0.566c-0.722,2.674-2.059,4.748-4.011,6.225s-4.445,2.215-7.479,2.215
			c-3.822,0-6.853-1.177-9.092-3.531c-2.239-2.354-3.358-5.655-3.358-9.903c0-4.396,1.132-7.809,3.396-10.236
			s5.199-3.642,8.809-3.642c3.494,0,6.348,1.189,8.563,3.568c2.215,2.378,3.321,5.725,3.321,10.039c0,0.262-0.008,0.656-0.024,1.181
			h-19.487c0.164,2.871,0.976,5.068,2.437,6.594c1.459,1.526,3.28,2.289,5.462,2.289c1.624,0,3.01-0.427,4.158-1.279
			C677.462,182.208,678.372,180.847,679.045,178.977z M664.503,171.816h14.591c-0.196-2.198-0.755-3.847-1.673-4.945
			c-1.411-1.706-3.24-2.56-5.487-2.56c-2.034,0-3.744,0.681-5.13,2.042C665.417,167.716,664.65,169.536,664.503,171.816z"/>
		<path fill="#4CAF50" d="M687.41,179.592l4.38-0.689c0.246,1.756,0.931,3.101,2.055,4.036c1.123,0.935,2.694,1.402,4.712,1.402
			c2.034,0,3.543-0.414,4.527-1.243c0.984-0.828,1.477-1.8,1.477-2.915c0-1.001-0.435-1.788-1.304-2.362
			c-0.607-0.394-2.116-0.895-4.528-1.501c-3.247-0.82-5.499-1.529-6.754-2.129c-1.255-0.599-2.206-1.427-2.854-2.484
			c-0.647-1.059-0.972-2.228-0.972-3.507c0-1.164,0.267-2.243,0.8-3.235s1.259-1.816,2.178-2.473
			c0.688-0.509,1.628-0.939,2.817-1.292s2.464-0.529,3.826-0.529c2.05,0,3.851,0.296,5.4,0.886c1.551,0.591,2.694,1.391,3.433,2.399
			s1.246,2.358,1.525,4.048l-4.33,0.59c-0.197-1.345-0.768-2.395-1.71-3.149c-0.943-0.754-2.276-1.132-3.999-1.132
			c-2.034,0-3.485,0.337-4.354,1.009c-0.87,0.673-1.305,1.46-1.305,2.362c0,0.574,0.181,1.091,0.542,1.55
			c0.36,0.477,0.926,0.87,1.697,1.182c0.443,0.164,1.747,0.541,3.912,1.132c3.133,0.836,5.319,1.521,6.558,2.055
			s2.21,1.308,2.916,2.325c0.705,1.017,1.058,2.28,1.058,3.789c0,1.477-0.431,2.866-1.292,4.171
			c-0.861,1.304-2.104,2.313-3.728,3.026c-1.624,0.713-3.461,1.07-5.512,1.07c-3.396,0-5.983-0.705-7.763-2.116
			C689.038,184.455,687.902,182.364,687.41,179.592z"/>
		<path fill="#4CAF50" d="M714.403,156.413v-5.093h4.429v5.093H714.403z M714.403,187.392v-26.131h4.429v26.131H714.403z"/>
		<path fill="#4CAF50" d="M724.762,189.557l4.306,0.64c0.181,1.329,0.681,2.297,1.501,2.903c1.099,0.82,2.6,1.23,4.503,1.23
			c2.051,0,3.633-0.41,4.749-1.23c1.115-0.82,1.87-1.968,2.264-3.444c0.229-0.902,0.336-2.797,0.319-5.684
			c-1.936,2.28-4.347,3.42-7.233,3.42c-3.593,0-6.373-1.296-8.342-3.888c-1.968-2.592-2.952-5.7-2.952-9.325
			c0-2.493,0.451-4.794,1.354-6.902c0.901-2.107,2.21-3.735,3.924-4.884c1.715-1.148,3.729-1.723,6.041-1.723
			c3.084,0,5.626,1.247,7.628,3.74v-3.149h4.084v22.588c0,4.067-0.414,6.951-1.242,8.648c-0.828,1.698-2.141,3.039-3.937,4.023
			c-1.797,0.984-4.007,1.476-6.632,1.476c-3.116,0-5.635-0.701-7.554-2.104S724.696,192.378,724.762,189.557z M728.428,173.858
			c0,3.429,0.681,5.93,2.042,7.505s3.067,2.362,5.118,2.362c2.034,0,3.74-0.783,5.118-2.35s2.066-4.023,2.066-7.37
			c0-3.198-0.709-5.609-2.128-7.233s-3.129-2.437-5.13-2.437c-1.969,0-3.642,0.8-5.02,2.399S728.428,170.709,728.428,173.858z"/>
		<path fill="#4CAF50" d="M753.599,187.392v-26.131h3.986v3.716c1.919-2.871,4.691-4.307,8.316-4.307
			c1.575,0,3.022,0.283,4.343,0.849c1.32,0.566,2.31,1.309,2.966,2.228c0.655,0.919,1.115,2.01,1.378,3.272
			c0.163,0.82,0.246,2.256,0.246,4.306v16.067h-4.43v-15.896c0-1.804-0.172-3.153-0.517-4.047c-0.345-0.895-0.956-1.607-1.833-2.141
			c-0.878-0.533-1.907-0.8-3.088-0.8c-1.887,0-3.515,0.599-4.884,1.796c-1.37,1.197-2.055,3.47-2.055,6.815v14.271H753.599z"/>
		<path fill="#4CAF50" d="M805.294,183.43l0.641,3.913c-1.247,0.262-2.362,0.394-3.347,0.394c-1.608,0-2.854-0.255-3.74-0.763
			c-0.886-0.509-1.509-1.177-1.87-2.006c-0.36-0.828-0.541-2.571-0.541-5.229v-15.034h-3.248v-3.444h3.248v-6.472l4.404-2.657v9.129
			h4.453v3.444h-4.453v15.28c0,1.264,0.078,2.075,0.233,2.436c0.156,0.361,0.41,0.648,0.763,0.861
			c0.353,0.214,0.857,0.32,1.514,0.32C803.843,183.603,804.49,183.545,805.294,183.43z"/>
		<path fill="#4CAF50" d="M809.624,187.392V151.32h4.43v12.942c2.066-2.395,4.675-3.593,7.824-3.593
			c1.936,0,3.617,0.382,5.044,1.145c1.428,0.763,2.448,1.816,3.063,3.162c0.615,1.345,0.923,3.297,0.923,5.855v16.56h-4.429v-16.56
			c0-2.214-0.48-3.826-1.439-4.835c-0.96-1.009-2.317-1.513-4.072-1.513c-1.313,0-2.547,0.34-3.703,1.021s-1.98,1.604-2.473,2.769
			s-0.738,2.772-0.738,4.822v14.296H809.624z"/>
		<path fill="#4CAF50" d="M855.538,178.977l4.576,0.566c-0.722,2.674-2.059,4.748-4.011,6.225s-4.445,2.215-7.479,2.215
			c-3.822,0-6.853-1.177-9.092-3.531c-2.239-2.354-3.358-5.655-3.358-9.903c0-4.396,1.132-7.809,3.396-10.236
			s5.199-3.642,8.809-3.642c3.494,0,6.348,1.189,8.563,3.568c2.215,2.378,3.321,5.725,3.321,10.039c0,0.262-0.008,0.656-0.024,1.181
			H840.75c0.164,2.871,0.976,5.068,2.437,6.594c1.459,1.526,3.28,2.289,5.462,2.289c1.624,0,3.01-0.427,4.158-1.279
			C853.955,182.208,854.865,180.847,855.538,178.977z M840.996,171.816h14.591c-0.196-2.198-0.755-3.847-1.673-4.945
			c-1.411-1.706-3.24-2.56-5.487-2.56c-2.034,0-3.744,0.681-5.13,2.042C841.91,167.716,841.144,169.536,840.996,171.816z"/>
		<path fill="#4CAF50" d="M865.675,187.392v-26.131h3.962v3.666c0.82-1.279,1.911-2.309,3.272-3.088s2.911-1.169,4.65-1.169
			c1.936,0,3.522,0.402,4.761,1.206c1.239,0.804,2.112,1.928,2.621,3.371c2.066-3.052,4.757-4.577,8.07-4.577
			c2.592,0,4.585,0.718,5.979,2.153c1.394,1.436,2.091,3.646,2.091,6.631v17.938h-4.404v-16.461c0-1.771-0.144-3.047-0.431-3.826
			s-0.808-1.406-1.563-1.883c-0.754-0.476-1.64-0.713-2.657-0.713c-1.837,0-3.362,0.611-4.576,1.833s-1.821,3.178-1.821,5.868
			v15.182h-4.429v-16.978c0-1.969-0.361-3.445-1.083-4.429c-0.722-0.984-1.902-1.477-3.543-1.477c-1.246,0-2.398,0.328-3.457,0.984
			c-1.058,0.656-1.825,1.615-2.301,2.879c-0.476,1.263-0.713,3.084-0.713,5.462v13.558H865.675z"/>
		<path fill="#4CAF50" d="M925.54,178.977l4.576,0.566c-0.722,2.674-2.059,4.748-4.011,6.225s-4.445,2.215-7.479,2.215
			c-3.822,0-6.853-1.177-9.092-3.531c-2.239-2.354-3.358-5.655-3.358-9.903c0-4.396,1.132-7.809,3.396-10.236
			s5.199-3.642,8.809-3.642c3.494,0,6.348,1.189,8.563,3.568c2.215,2.378,3.321,5.725,3.321,10.039c0,0.262-0.008,0.656-0.024,1.181
			h-19.487c0.164,2.871,0.976,5.068,2.437,6.594c1.459,1.526,3.28,2.289,5.462,2.289c1.624,0,3.01-0.427,4.158-1.279
			C923.957,182.208,924.867,180.847,925.54,178.977z M910.998,171.816h14.591c-0.196-2.198-0.755-3.847-1.673-4.945
			c-1.411-1.706-3.24-2.56-5.487-2.56c-2.034,0-3.744,0.681-5.13,2.042C911.912,167.716,911.146,169.536,910.998,171.816z"/>
		<path fill="#4CAF50" d="M936.932,187.392v-5.044h5.045v5.044H936.932z"/>
	</g>
</g>
</svg>
