<?xml version="1.0" encoding="utf-8"?>
<!-- Generator: Adobe Illustrator 15.1.0, SVG Export Plug-In . SVG Version: 6.00 Build 0)  -->
<!DOCTYPE svg PUBLIC "-//W3C//DTD SVG 1.1//EN" "http://www.w3.org/Graphics/SVG/1.1/DTD/svg11.dtd">
<svg version="1.1" id="Capa_1" xmlns="http://www.w3.org/2000/svg" xmlns:xlink="http://www.w3.org/1999/xlink" x="0px" y="0px"
	 width="477.959px" height="477.959px" viewBox="0 0 477.959 477.959" enable-background="new 0 0 477.959 477.959"
	 xml:space="preserve">
<g>
	<g>
		<path fill="#4CAF50" d="M238.421,165.792c0,0,54.115-84.599,18.411-143.04C243.147,0.356,213.901-6.707,191.505,6.976
			c-16.049,9.805-24.223,27.602-22.533,45.14c-14.836-9.507-34.4-10.354-50.449-0.552c-22.396,13.684-29.459,42.931-15.777,65.327
			C138.452,175.333,238.421,165.792,238.421,165.792z"/>
		<path fill="#4CAF50" d="M260.801,202.423c0,0-54.115,84.596-18.409,143.04c13.684,22.396,42.932,29.46,65.327,15.774
			c16.048-9.804,24.224-27.6,22.53-45.14c14.837,9.509,34.402,10.356,50.449,0.553c22.396-13.683,29.459-42.931,15.777-65.324
			C360.771,192.881,260.801,202.423,260.801,202.423z"/>
		<path fill="#4CAF50" d="M426.744,126.001c-9.806-16.049-27.603-24.224-45.142-22.533c9.508-14.836,10.357-34.4,0.554-50.448
			c-13.685-22.396-42.931-29.46-65.326-15.777c-58.44,35.705-48.903,135.676-48.903,135.676s84.598,54.115,143.041,18.41
			C433.361,177.645,440.426,148.397,426.744,126.001z"/>
		<path fill="#4CAF50" d="M117.62,264.748c-9.508,14.835-10.357,34.399-0.551,50.446c13.682,22.396,42.93,29.459,65.324,15.777
			c58.445-35.705,48.904-135.676,48.904-135.676s-84.596-54.115-143.041-18.408c-22.395,13.682-29.459,42.93-15.775,65.326
			C82.286,258.263,100.081,266.437,117.62,264.748z"/>
		<path fill="#4CAF50" d="M216.699,316.855c-0.652,1.458-1.324,3.08-2.141,4.81c-0.85,1.717-1.701,3.587-2.77,5.515
			c-2.033,3.893-4.572,8.14-7.598,12.561c-3.018,4.425-6.537,9.019-10.539,13.599c-4,4.585-8.482,9.154-13.365,13.593
			c-4.879,4.438-10.156,8.74-15.711,12.836c-5.566,4.083-11.416,7.953-17.402,11.58c-11.975,7.257-24.551,13.476-36.604,18.621
			c-12.051,5.155-23.588,9.238-33.539,12.366c-9.957,3.128-18.332,5.29-24.117,6.646c-2.891,0.676-5.137,1.151-6.613,1.443
			c-0.709,0.131-1.254,0.231-1.619,0.299c-0.191,0.037-0.25,0.036-0.303,0.041c-0.051,0.003-0.15,0.023-0.137,0.021l14.199,47.176
			c0,0,0.287-0.11,0.842-0.328c0.475-0.201,1.182-0.5,2.104-0.889c1.773-0.77,4.283-1.895,7.404-3.365
			c6.24-2.947,14.922-7.301,25.004-13.006c10.078-5.706,21.563-12.766,33.34-21.082c11.775-8.303,23.848-17.865,35.027-28.396
			c5.592-5.263,10.967-10.746,15.982-16.385c5.006-5.648,9.652-11.443,13.828-17.264c4.18-5.819,7.881-11.665,11.053-17.375
			c3.176-5.705,5.814-11.272,7.957-16.503c2.145-5.229,3.809-10.113,5.027-14.499c0.66-2.174,1.123-4.257,1.604-6.148
			c0.449-1.906,0.777-3.676,1.113-5.255c0.561-3.192,0.969-5.688,1.154-7.404c0.215-1.707,0.328-2.617,0.328-2.617
			s-0.303,0.866-0.867,2.491C218.809,311.561,217.889,313.907,216.699,316.855z"/>
	</g>
</g>
</svg>
