<svg xmlns="http://www.w3.org/2000/svg" width="1024" height="768" viewBox="0 0 1024 768">
  <defs>
    <style>
      .cls-1 {
        fill: #fff;
      }
    </style>
  </defs>
  <title>wall</title>
  <g id="レイヤー_2" data-name="レイヤー 2">
    <path class="cls-1" d="M0,0V768H1024V0ZM943,686c-43,44-108,64-174,64-126,0-126-10-252-10s-126,26-252,26c-66,0-121-46-164-89S7,581,7,515C7,386,21,384,19,256c-1-66,34-109,85-162S200,6,266,6c126,0,126,7,252,7S644,2,769,2c66,0,130,37,174,80s72,108,72,174c0,129,3,129,3,257C1018,579,986,643,943,686Z"/>
  </g>
</svg>
